<svg width="10" height="10" viewBox="0 0 10 10" fill="none" xmlns="http://www.w3.org/2000/svg">
<path d="M3.4549 0.244711C4.4591 -0.0815706 5.54083 -0.0815703 6.54503 0.244711C7.54924 0.570997 8.42439 1.20682 9.04503 2.06104L7.42699 3.23666C7.05461 2.72412 6.52957 2.34257 5.92705 2.1468C5.32452 1.95102 4.67541 1.95102 4.07288 2.1468C3.47036 2.34257 2.94532 2.72412 2.57294 3.23666C2.20055 3.7492 1.99997 4.3665 1.99997 5.00004C1.99998 5.49253 2.12125 5.97516 2.35016 6.40644C2.35383 6.40639 2.35754 6.40621 2.36122 6.40621C2.7896 6.40623 3.14465 6.71972 3.20976 7.12978C3.40564 7.00524 3.6383 6.9335 3.88764 6.93432C4.51449 6.9364 5.03263 7.39685 5.12581 7.99725C5.39656 7.98588 5.66619 7.93796 5.92705 7.8532C6.52957 7.65743 7.05461 7.27588 7.42699 6.76334L9.04503 7.93896C8.42439 8.79318 7.54924 9.429 6.54503 9.75529C5.54082 10.0816 4.4591 10.0816 3.4549 9.75529C2.45069 9.429 1.57553 8.79318 0.954895 7.93896C0.334262 7.08473 7.16757e-06 6.05592 0 5.00004C2.18182e-07 3.94414 0.334255 2.91528 0.954895 2.06104C1.57553 1.20682 2.45069 0.570997 3.4549 0.244711Z" fill="#D1D5DB"/>
<path d="M5.70313 5.46871C5.96199 5.46873 6.17187 5.6786 6.17188 5.93746C6.17188 6.19633 5.96199 6.40619 5.70313 6.40621C5.44424 6.40621 5.23438 6.19635 5.23438 5.93746C5.23439 5.67859 5.44425 5.46871 5.70313 5.46871Z" fill="#D1D5DB"/>
<path d="M3.51563 4.21871C3.77449 4.21873 3.98437 4.4286 3.98438 4.68746C3.98438 4.94633 3.77449 5.15619 3.51563 5.15621C3.25674 5.15621 3.04688 4.94635 3.04688 4.68746C3.04689 4.42859 3.25675 4.21871 3.51563 4.21871Z" fill="#D1D5DB"/>
<path d="M5.23438 2.96871C5.49324 2.96873 5.70312 3.1786 5.70313 3.43746C5.70313 3.69633 5.49324 3.90619 5.23438 3.90621C4.97549 3.90621 4.76563 3.69634 4.76563 3.43746C4.76564 3.17859 4.9755 2.96871 5.23438 2.96871Z" fill="#D1D5DB"/>
</svg>
